<?xml version="1.0" standalone="no"?>
<!DOCTYPE svg PUBLIC "-//W3C//DTD SVG 20010904//EN"
 "http://www.w3.org/TR/2001/REC-SVG-20010904/DTD/svg10.dtd">
<svg version="1.0" xmlns="http://www.w3.org/2000/svg"
 width="2048.000000pt" height="2048.000000pt" viewBox="0 0 2048.000000 2048.000000"
 preserveAspectRatio="xMidYMid meet">

<g transform="translate(0.000000,2048.000000) scale(0.100000,-0.100000)"
fill="#000000" stroke="none">
<path d="M9788 15020 c-390 -44 -726 -156 -988 -329 -107 -70 -300 -260 -368
-363 -113 -168 -177 -323 -224 -539 -19 -89 -22 -134 -22 -309 0 -175 3 -220
23 -310 85 -393 317 -675 778 -946 l95 -56 -29 -18 c-35 -22 -68 -54 -88 -84
-32 -48 -58 -176 -37 -176 5 0 17 19 28 43 44 98 166 189 275 203 l46 6 -14
47 c-24 72 -20 213 6 291 65 188 204 313 398 356 73 16 170 15 230 -2 17 -5
24 -1 29 12 57 164 111 249 227 361 95 91 191 149 312 190 72 24 95 27 225 27
139 1 149 0 240 -32 263 -92 439 -286 511 -562 13 -47 24 -86 25 -88 1 -2 28
4 59 14 42 12 83 15 149 12 77 -3 102 -9 163 -37 164 -76 279 -275 259 -446
-6 -50 -6 -50 10 -22 21 39 31 139 21 216 -17 131 -86 251 -189 327 -81 59
-155 85 -262 93 l-90 6 -17 55 c-77 253 -281 471 -522 558 -110 40 -180 52
-299 52 -236 0 -446 -88 -610 -256 -91 -93 -142 -163 -190 -261 -22 -46 -44
-83 -49 -83 -17 0 -228 100 -323 152 -147 81 -248 151 -326 224 -140 132 -194
252 -194 429 0 169 50 291 170 411 279 281 863 278 1560 -9 131 -53 416 -195
493 -244 29 -19 57 -31 61 -26 13 13 400 635 400 642 0 3 -36 30 -80 59 -309
207 -636 330 -1040 393 -111 18 -190 22 -445 24 -170 2 -345 0 -387 -5z"/>
<path d="M10670 12510 c-174 -18 -395 -90 -585 -189 -60 -32 -202 -113 -315
-181 -559 -337 -835 -432 -1210 -417 -159 6 -306 36 -412 84 -32 14 -60 24
-62 22 -6 -6 131 -107 205 -151 203 -123 496 -184 768 -159 159 15 248 33 396
82 185 61 350 151 655 353 151 100 302 199 336 219 94 56 319 162 417 196 93
32 262 70 319 72 l33 1 -31 13 c-98 43 -359 71 -514 55z"/>
<path d="M11200 12269 c-188 -23 -410 -97 -604 -203 -49 -27 -218 -135 -376
-241 -495 -331 -744 -435 -1120 -468 l-143 -12 78 -44 c173 -99 348 -145 550
-145 322 0 574 115 1061 485 218 165 316 230 434 289 216 108 380 150 590 150
213 0 383 -43 588 -149 l97 -51 -50 46 c-164 149 -455 288 -690 329 -114 20
-310 26 -415 14z"/>
<path d="M11493 11905 c-147 -27 -352 -113 -503 -212 -94 -62 -323 -233 -318
-238 1 -2 65 -35 140 -73 346 -177 518 -334 586 -539 22 -66 26 -96 26 -193 0
-99 -4 -126 -26 -188 -37 -102 -83 -174 -154 -242 -148 -138 -343 -200 -631
-200 -223 0 -450 42 -725 134 -267 89 -631 261 -903 425 -115 69 -153 87 -161
78 -7 -7 -97 -155 -202 -330 l-190 -318 62 -43 c429 -304 901 -478 1491 -548
66 -8 219 -13 380 -12 229 0 293 3 425 23 476 71 814 223 1075 485 210 211
327 430 392 734 25 116 27 147 28 347 0 237 -12 326 -70 495 -54 160 -181 358
-245 384 -111 44 -327 58 -477 31z"/>
<path d="M5183 8270 c-39 -10 -88 -27 -110 -38 -146 -75 -232 -252 -204 -418
32 -179 132 -261 416 -339 272 -76 327 -101 361 -167 22 -42 14 -116 -16 -158
-29 -41 -109 -78 -187 -86 -135 -14 -343 48 -475 142 l-48 34 -29 -58 c-17
-31 -41 -75 -55 -98 l-25 -41 44 -32 c71 -51 203 -109 310 -137 122 -32 299
-36 408 -10 140 33 250 110 305 214 79 148 54 329 -60 438 -62 60 -145 98
-341 154 -211 61 -267 84 -300 118 -36 39 -47 65 -47 114 0 60 28 108 81 138
40 23 54 25 164 25 109 -1 129 -4 215 -33 52 -18 119 -46 147 -63 l53 -29 14
32 c8 18 28 63 45 100 17 37 31 71 31 76 0 10 -133 73 -205 97 -145 48 -361
59 -492 25z"/>
<path d="M10832 8270 c-143 -38 -227 -105 -285 -228 -29 -61 -32 -75 -32 -167
0 -115 17 -164 81 -235 73 -80 139 -111 407 -186 172 -48 229 -74 272 -126 24
-29 27 -38 23 -95 -3 -53 -9 -68 -33 -94 -17 -17 -49 -40 -73 -51 -128 -58
-379 -15 -542 91 -30 20 -60 39 -66 43 -8 5 -32 -27 -69 -89 l-58 -96 24 -19
c43 -33 143 -87 213 -113 248 -93 527 -80 703 34 175 113 226 353 112 525 -62
93 -158 143 -419 216 -243 67 -313 116 -313 214 0 62 28 112 82 144 43 25 54
27 161 27 132 -1 187 -14 323 -77 48 -23 89 -39 91 -37 2 2 24 48 49 101 l46
98 -42 24 c-65 38 -186 83 -270 100 -107 22 -291 20 -385 -4z"/>
<path d="M14732 8267 c-12 -15 -197 -418 -327 -712 -53 -121 -115 -260 -137
-310 -72 -160 -159 -367 -156 -370 2 -2 57 -5 123 -6 l119 -3 68 155 67 154
358 5 c197 3 359 5 360 5 1 0 32 -71 71 -158 l69 -158 131 -2 c73 -1 132 -1
132 1 0 10 -391 884 -597 1334 l-35 76 -118 1 c-81 0 -121 -4 -128 -12z m189
-424 c34 -82 91 -212 126 -289 34 -78 63 -145 63 -148 0 -3 -117 -6 -260 -6
-143 0 -260 2 -260 5 0 3 37 87 81 188 45 100 99 222 121 271 43 97 57 126 62
126 2 0 32 -66 67 -147z"/>
<path d="M6717 8023 c-3 -137 -4 -452 -1 -701 l6 -453 121 0 122 0 5 190 5
190 89 93 c50 51 102 106 117 122 l26 28 229 -302 c126 -166 234 -307 239
-314 7 -9 53 -13 153 -14 78 -1 142 0 142 3 0 3 -133 185 -295 405 l-295 401
228 242 c125 133 252 268 281 300 l54 57 -145 0 -145 0 -269 -282 c-148 -156
-303 -318 -344 -361 l-75 -78 0 68 c0 37 -1 200 -3 361 l-2 292 -118 0 -119 0
-6 -247z"/>
<path d="M8544 8213 c19 -32 138 -237 265 -455 l231 -397 0 -245 0 -245 124
-3 123 -3 7 134 c3 74 6 189 6 257 l0 122 127 213 c69 118 187 315 261 439 74
124 137 228 139 233 2 4 -54 7 -125 7 l-128 0 -164 -267 c-90 -148 -179 -296
-198 -330 -20 -35 -39 -63 -42 -63 -3 0 -14 17 -24 38 -10 20 -39 73 -65 117
-27 44 -103 176 -171 293 l-122 212 -139 0 -138 0 33 -57z"/>
<path d="M12360 7565 l0 -705 540 0 540 0 0 110 0 110 -415 0 -415 0 0 190 0
190 360 0 360 0 0 110 0 110 -360 0 -360 0 0 185 0 185 405 0 405 0 0 110 0
110 -530 0 -530 0 0 -705z"/>
<path d="M6375 6081 c-93 -24 -164 -81 -205 -164 -77 -158 -35 -335 103 -427
122 -82 296 -72 412 25 l30 25 -35 29 c-34 29 -35 29 -55 11 -61 -57 -183 -76
-260 -41 -97 44 -159 165 -137 270 24 116 100 183 212 189 78 5 127 -9 171
-45 l31 -26 31 32 32 32 -30 25 c-55 44 -115 66 -195 70 -41 2 -88 0 -105 -5z"/>
<path d="M7249 6076 c-145 -39 -239 -160 -239 -310 0 -196 130 -327 326 -327
238 0 394 218 313 438 -32 87 -115 165 -204 192 -75 24 -128 25 -196 7z m213
-111 c23 -17 56 -50 73 -74 28 -40 30 -49 30 -131 0 -82 -2 -91 -30 -131 -17
-24 -50 -57 -74 -74 -39 -27 -50 -30 -120 -30 -69 0 -83 3 -127 30 -130 81
-148 293 -32 390 53 45 86 56 165 52 61 -2 78 -7 115 -32z"/>
<path d="M9099 6075 c-93 -30 -148 -131 -119 -219 22 -67 76 -99 261 -150 94
-26 131 -80 93 -134 -51 -74 -204 -70 -314 8 l-28 20 -22 -35 c-27 -44 -21
-53 63 -91 80 -36 209 -45 284 -20 112 37 165 163 106 253 -24 36 -89 70 -189
96 -50 14 -104 32 -121 40 -40 21 -55 63 -38 103 31 75 178 78 306 7 5 -3 39
61 39 73 0 3 -25 17 -56 31 -70 32 -195 41 -265 18z"/>
<path d="M13975 6081 c-92 -24 -173 -91 -216 -176 -20 -43 -24 -64 -24 -145 0
-80 4 -103 25 -145 47 -96 128 -153 248 -175 75 -13 177 5 255 47 l52 28 3
114 c1 63 1 120 -1 126 -3 6 -24 9 -51 7 l-46 -4 0 -100 0 -99 -37 -16 c-132
-57 -288 0 -340 125 -18 44 -18 150 0 193 37 89 116 139 221 139 68 0 114 -14
159 -50 27 -22 29 -22 43 -4 46 60 43 68 -49 109 -66 30 -180 42 -242 26z"/>
<path d="M8040 5837 c0 -134 3 -278 6 -320 l7 -77 43 0 44 0 2 237 3 237 92
-119 c291 -379 265 -350 311 -353 l42 -3 0 320 0 321 -45 0 -45 0 -2 -231 -3
-231 -55 70 c-30 39 -111 143 -180 231 l-125 160 -47 1 -48 0 0 -243z"/>
<path d="M9792 5863 c4 -170 8 -227 21 -261 24 -64 53 -99 105 -129 43 -26 56
-28 147 -28 110 0 153 15 207 72 57 59 62 88 66 336 l4 227 -46 0 -46 0 0
-197 c0 -109 -5 -215 -10 -235 -37 -133 -207 -173 -302 -72 -46 49 -51 76 -56
297 l-4 207 -45 0 -45 0 4 -217z"/>
<path d="M10738 5760 l3 -320 224 0 225 0 0 45 0 45 -180 0 -180 0 0 275 0
275 -47 0 -48 0 3 -320z"/>
<path d="M11400 6034 l0 -45 105 3 105 3 0 -277 0 -278 50 0 50 0 0 275 0 274
103 3 102 3 3 43 3 42 -260 0 -261 0 0 -46z"/>
<path d="M12280 5760 l0 -320 50 0 50 0 0 320 0 320 -50 0 -50 0 0 -320z"/>
<path d="M12808 5760 l3 -320 44 0 45 0 2 240 3 240 70 -93 c319 -417 292
-387 336 -387 l39 0 0 320 0 320 -45 0 -45 0 -2 -232 -3 -233 -99 130 c-55 72
-136 176 -180 233 l-80 102 -45 0 -46 0 3 -320z"/>
</g>
</svg>
